<?xml version="1.0" encoding="utf-8"?>
<!-- Generator: Adobe Illustrator 23.1.0, SVG Export Plug-In . SVG Version: 6.00 Build 0)  -->
<svg version="1.1" id="图层_1" xmlns="http://www.w3.org/2000/svg" xmlns:xlink="http://www.w3.org/1999/xlink" x="0px" y="0px"
	 viewBox="0 0 85.5 42" style="enable-background:new 0 0 85.5 42;" xml:space="preserve">
<style type="text/css">
	.st0{fill-rule:evenodd;clip-rule:evenodd;fill:#007FFF;}
</style>
<title>logo</title>
<desc>Created with Sketch.</desc>
<g transform="translate(14.000000, 14.000000)">
	<path id="Logo" class="st0" d="M9.2,5.9c-5.6-4.4-12-10.1-19-16.3c-0.5-0.5-1-0.3-1.3,0.4c-1.6,4.1,0,7.8,2.4,10
		C-6.2,2-2.5,4-0.2,5c0.1,0,0,0.2-0.1,0.1C-4.4,3.3-7.3,2-11.2-1c-0.4-0.3-0.8-0.2-0.9,0.4c-0.3,4,2.2,7.1,5.1,8.1
		c1.8,0.7,3.7,1,5.4,1.2c0.1,0,0.1,0.1,0,0.1c-2.3,0-5.1-0.5-7.5-1.5C-9.6,7.3-9.8,7.7-9.7,8c0.4,1.7,2.5,4.2,5.8,4.8
		c0.6,0.1,1.3,0.1,1.9,0.1c0.1,0,0.2,0.1,0.1,0.2c0,0-2.2,3.8-2.3,4c-0.1,0.1,0,0.2,0.1,0.2c0.2,0,2.8,0,3,0c0.1,0,0.2,0.1,0.2,0.2
		C-1.1,17.6-5,24-5.2,24.4c-0.2,0.3,0,0.5,0.3,0.3c0.3-0.2,12.7-9.3,13-9.6c0.2-0.1,0.1-0.3-0.1-0.3c-0.2,0-2.5,0-2.7,0
		s-0.2-0.1-0.1-0.2c0.1-0.1,3-3,4-4.1C10.5,9.3,11,7.3,9.2,5.9 M51.5-3.4h-3l-2,3.8c-0.1,0.2,0,0.4,0.3,0.4h8.9L56-1.7h-5.4
		L51.5-3.4z M45.7,6.4h2.4c-0.1,0.9-0.2,1.9-0.4,3h-2.4L45,12h2.4c-0.4,3-0.7,5.8-0.8,6.3c-0.2,1.4,1.2,2.1,2.6,1.8
		c1.9-0.3,2.6-0.6,4.2-1.3l0.3-2.8c-0.9,0.4-2.7,1-3.7,1.2c-0.3,0.1-0.6-0.1-0.5-0.4l0.6-4.8h4.1l0.3-2.6h-4.1l0.4-3H55l0.3-2.6H46
		L45.7,6.4z M69.6-1.7H58.3L58,0.9h6.1l-1.9,15.6c0,0.2-0.3,0.4-0.5,0.4h-4.8l-0.3,2.8h5.8c1.2,0,2.3-1,2.5-2.2l2-16.6h2.4L69.6-1.7
		z M23.5-3.4h-3l-2,3.8c-0.1,0.2,0,0.4,0.3,0.4h8.9l0.3-2.6h-5.4L23.5-3.4z M17.8,6.4h2.4c-0.1,0.9-0.2,1.9-0.4,3h-2.4L17.1,12h2.4
		c-0.4,3-0.7,5.8-0.8,6.3c-0.2,1.4,1.2,2.1,2.6,1.8c1.9-0.3,2.6-0.6,4.2-1.3l0.3-2.8c-0.9,0.4-2.7,1-3.7,1.2
		c-0.3,0.1-0.6-0.1-0.5-0.4l0.6-4.8h4.1l0.3-2.6h-4.1l0.4-3h4.1l0.3-2.6h-9.3L17.8,6.4z M30.1,0.9h6.1l-1.9,15.6
		c0,0.2-0.3,0.4-0.5,0.4h-4.8l-0.3,2.8h5.8c1.2,0,2.3-1,2.5-2.2l2-16.6h2.4l0.3-2.6H30.4L30.1,0.9z"/>
</g>
</svg>
